<svg width="1440" height="1024" viewBox="0 0 1440 1024" fill="none" xmlns="http://www.w3.org/2000/svg">
<g clip-path="url(#clip0_41_1150)">
<rect width="1440" height="1024" fill="#D8E1FF"/>
<rect width="375" height="812" transform="translate(533 212)" fill="#D8E1FF"/>
<path d="M875.261 657.456C916.755 708.713 917.609 799.943 855.854 849.936C794.099 899.93 693.119 889.756 651.625 838.499C610.13 787.242 626.022 742.613 687.778 692.619C749.533 642.626 833.766 606.199 875.261 657.456Z" fill="#FCF4B3"/>
<path d="M532.538 521.702C503.856 561.093 477.033 645.218 479.658 668.288C482.272 691.256 536.839 722.192 565.295 738.325L565.673 738.54C583.546 748.673 597.507 759.772 620.828 748.614C644.149 737.456 671.564 707.619 696.501 673.81C721.438 640.002 722.597 629.22 726.813 609.914C731.029 590.608 738.763 556.919 726.49 541.638C714.218 526.357 587.394 454.538 565.884 477.419C544.375 500.299 543.471 506.687 532.538 521.702Z" fill="#CCFFF1"/>
<path d="M1419.44 467.794C1378.21 493.762 1322.14 561.972 1316.04 584.374C1309.96 606.677 1349.19 655.622 1369.65 681.146L1369.92 681.485C1382.77 697.517 1391.62 712.997 1417.42 711.269C1443.21 709.541 1479.73 691.978 1515.42 669.809C1551.1 647.639 1556.17 638.053 1567.23 621.681C1578.3 605.309 1597.96 576.88 1592.22 558.141C1586.48 539.401 1495.27 425.721 1466.82 439.009C1438.36 452.297 1435.16 457.896 1419.44 467.794Z" fill="#FCF4B3"/>
<path d="M924.427 1085.94C931.528 1030.28 911.943 930.499 896.499 908.671C881.123 886.94 808.894 885.981 771.226 885.481L770.727 885.474C747.068 885.16 726.823 881.701 709.474 905.896C692.126 930.091 681.005 975.409 674.588 1023.36C668.171 1071.31 672.981 1082.84 679.434 1104.66C685.886 1126.48 696.764 1164.77 717.625 1173.39C738.486 1182 906.314 1184.15 915.332 1149.13C924.351 1114.11 921.72 1107.16 924.427 1085.94Z" fill="#2A8E7D"/>
<path d="M760.259 332.14C721.544 362.874 769.834 379.93 753.301 409.182C736.769 438.434 710.677 422.05 684.263 436.01C657.85 449.97 659.223 487.092 669.821 501.362C680.419 515.633 703.526 517.026 710.803 518.151C722.89 520.02 732.105 519.667 739.717 534.609C747.328 549.551 735.155 566.516 732.947 577.18C730.597 588.53 729.429 602.748 732.947 613.866C743.016 645.681 796.1 637.691 820.226 629.741C844.352 621.792 851.07 649.246 879.18 636.16C907.289 623.073 884.94 602.752 900.728 587.434C916.516 572.116 928.62 568.678 943.383 561.817C954.895 556.467 965.585 548.66 969.234 535.94C972.564 524.331 971.356 511.233 970.755 499.322C969.878 481.933 963.434 467.206 946.456 460.37C934.509 455.56 920.748 454.109 908.274 450.965C900.754 449.07 890.419 448.255 884.264 443.022C877.724 437.461 881.685 424.748 882.438 417.584C883.743 405.164 903.206 385.34 881.072 352.454C858.938 319.569 798.974 301.406 760.259 332.14Z" fill="#FFDDF5"/>
<path d="M228.262 745.748C194.604 709.546 181.364 759.019 150.912 744.816C120.461 730.614 134.761 703.324 118.785 678.08C102.809 652.835 65.9073 657.097 52.5059 668.775C39.1045 680.453 39.5169 703.598 38.9625 710.941C38.0417 723.137 39.1121 732.297 24.8085 741.05C10.5048 749.802 -7.35711 738.989 -18.161 737.619C-29.6593 736.161 -43.9255 736.104 -54.7352 740.478C-85.6688 752.996 -73.5654 805.295 -63.7594 828.728C-53.9534 852.162 -80.8006 860.999 -65.5632 888.003C-50.3258 915.007 -31.8079 891.142 -15.306 905.688C1.19583 920.234 5.56688 932.033 13.5573 946.216C19.7882 957.277 28.4049 967.326 41.3707 969.972C53.2041 972.387 66.1684 970.162 77.9956 968.635C95.2634 966.405 109.444 958.832 114.935 941.373C118.799 929.088 119.173 915.255 121.336 902.574C122.639 894.93 122.646 884.563 127.383 878.018C132.417 871.064 145.401 874.023 152.602 874.215C165.085 874.548 186.366 892.407 217.427 867.777C248.487 843.147 261.921 781.95 228.262 745.748Z" fill="#2A8E7D"/>
<path d="M462.34 752.76C427.958 788.274 478.058 798.896 465.476 830.052C452.895 861.207 424.891 848.361 400.521 865.643C376.15 882.924 382.347 919.551 394.713 932.32C407.079 945.089 430.171 943.46 437.533 943.628C449.76 943.906 458.851 942.355 468.344 956.179C477.837 970.003 467.977 988.409 467.177 999.27C466.325 1010.83 467.018 1025.08 471.955 1035.64C486.082 1065.88 537.672 1051.04 560.558 1040.02C583.443 1028.99 593.68 1055.34 619.845 1038.7C646.011 1022.06 621.205 1004.83 634.864 987.583C648.522 970.34 660.075 965.354 673.819 956.629C684.536 949.826 694.119 940.692 696.079 927.605C697.869 915.662 694.966 902.832 692.819 891.102C689.684 873.975 681.376 860.212 663.653 855.646C651.181 852.433 637.348 852.787 624.571 851.294C616.868 850.394 606.515 850.933 599.731 846.546C592.522 841.884 594.794 828.763 594.607 821.562C594.284 809.078 610.999 786.888 584.77 757.165C558.541 727.443 496.723 717.245 462.34 752.76Z" fill="#9F83FF"/>
<path d="M464.462 644.805C441.778 593.482 373.449 518.178 348.947 507.471C324.554 496.811 262.22 533.315 229.714 552.351L229.282 552.604C208.865 564.56 189.745 572.061 187.395 601.74C185.045 631.419 198.942 675.964 218.227 720.333C237.512 764.702 247.586 772.082 264.387 787.431C281.187 802.781 310.287 829.94 332.599 826.536C354.911 823.133 499.703 738.245 489.327 703.601C478.951 668.958 473.108 664.369 464.462 644.805Z" fill="#FFFDE8"/>
<path d="M87.6259 1036.48C88.8089 955.608 159.665 869.018 257.096 870.443C354.526 871.868 441.636 960.769 440.453 1041.64C439.27 1122.5 389.247 1152.05 291.816 1150.63C194.385 1149.2 86.4428 1117.34 87.6259 1036.48Z" fill="#FFDDF5"/>
<path d="M-167.374 540.475C-166.191 459.608 -95.3351 373.018 2.09556 374.443C99.5262 375.868 186.636 464.769 185.453 545.637C184.27 626.504 134.247 656.052 36.816 654.627C-60.6146 653.201 -168.557 621.343 -167.374 540.475Z" fill="#FCF4B3"/>
<path d="M956.671 614.461C957.879 531.891 1030.23 443.478 1129.71 444.933C1229.19 446.389 1318.13 537.161 1316.93 619.731C1315.72 702.301 1264.64 732.471 1165.16 731.015C1065.68 729.56 955.463 697.031 956.671 614.461Z" fill="#FFFDE8"/>
<path d="M889.826 811.928C928.263 737.563 1033.88 690.069 1123.48 736.379C1213.08 782.689 1252.72 905.266 1214.28 979.631C1175.85 1054 1115.86 1058.27 1026.27 1011.96C936.67 965.649 851.389 886.293 889.826 811.928Z" fill="#CCFFF1"/>
<path d="M1375.66 717.236C1327.95 732.14 1367.3 765.814 1341.05 787.394C1314.8 808.975 1296.15 784.017 1266.14 787.572C1236.14 791.127 1223.92 826.652 1228.72 843.975C1233.53 861.299 1254.82 871.026 1261.28 874.737C1272 880.9 1280.83 883.922 1282.57 900.792C1284.31 917.662 1266.65 929.236 1260.68 938.495C1254.33 948.348 1248.05 961.338 1247.32 973.109C1245.24 1006.79 1298.24 1018.58 1323.89 1019.86C1349.55 1021.15 1345.89 1049.5 1377.18 1047.38C1408.47 1045.27 1394.78 1017.96 1415.25 1009.25C1435.73 1000.55 1448.4 1001.71 1464.82 1000.61C1477.63 999.758 1490.56 996.284 1498.64 985.61C1506.01 975.869 1509.64 963.071 1513.41 951.615C1518.91 934.888 1518.19 918.646 1504.66 906.015C1495.14 897.127 1482.68 890.748 1472.06 883.24C1465.65 878.714 1456.2 874.182 1452.3 867.004C1448.15 859.376 1456.52 848.823 1459.83 842.338C1465.59 831.094 1491.17 819.476 1482.26 780.389C1473.35 741.302 1423.38 702.333 1375.66 717.236Z" fill="#9F83FF"/>
</g>
<defs>
<clipPath id="clip0_41_1150">
<rect width="1440" height="1024" fill="white"/>
</clipPath>
</defs>
</svg>
